{"title":"Wiz Khalifa ft.Charlie Puth - See You Again (from Furious 7)","uid":12116351,"size":91242286,"categoryP":"video","categoryS":"music_videos","magnet":"?xt=urn:btih:66770cb0969c7ffc3a3b1be4bb71bb71e044f221&amp;dn=Wiz+Khalifa+ft.Charlie+Puth+-+See+You+Again+%28from+Furious+7%29&amp;tr=udp%3A%2F%2Ftracker.openbittorrent.com%3A80&amp;tr=udp%3A%2F%2Fopen.demonii.com%3A1337&amp;tr=udp%3A%2F%2Ftracker.coppersurfer.tk%3A6969&amp;tr=udp%3A%2F%2Fexodus.desync.com%3A6969","seeders":0,"leechers":7,"uploader":"MeRaDil","files":1,"time":1436719508,"description":"WIZ KHALIFA ft.CHARLIE PUTH - SEE YOU AGAIN (from FURIOUS 7)\n\n &lt;a href=&quot;\nhttp://gifyu.com/images/SeeYouAgain.png&quot; rel=&quot;nofollow&quot; target=&quot;_NEW&quot;&gt;\nhttp://gifyu.com/images/SeeYouAgain.png&lt;/a&gt;\n &lt;a href=&quot;\nhttp://gifyu.com/images/SeeYouAgain1.png&quot; rel=&quot;nofollow&quot; target=&quot;_NEW&quot;&gt;\nhttp://gifyu.com/images/SeeYouAgain1.png&lt;/a&gt;\n\n\nGeneral\nWiz Khalifa ft. Charlie Puth - See You Again (from Furious 7)\nFormat                                   : MPEG-4\nFormat profile                           : Base Media\nCodec ID                                 : isom\nFile size                                : 87.0 MiB\nDuration                                 : 3mn 57s\nOverall bit rate                         : 3 074 Kbps\nMusicVid name                            : See You Again\nAlbum                                    : Furious 7 : Original Motion Picture Soundtrack\nPerformer                                : Wiz Khalifa ft. Charlie Puth\nGenre                                    : Soundtrack/HipHop\nContentType                              : Music Video\nRecorded date                            : 2015\nCover                                    : Yes\nRating                                   : ***\nMake                                     : MeRaDil\nRelease                                  : USA - april 6 - 2015\n\nVideo\nID                                       : 1\nFormat                                   : AVC\nFormat/Info                              : Advanced Video Codec\nFormat profile                           : &lt;a class=&quot;__cf_email__&quot; href=&quot;/cdn-cgi/l/email-protection&quot; data-cfemail=&quot;622a0b050a222e564c52&quot;&gt;[email&amp;#160;protected]&lt;/a&gt;&lt;script data-cfhash='f9e31' type=&quot;text/javascript&quot;&gt;\n/* &lt;![CDATA[ */!function(){try{var t=&quot;currentScript&quot;in document?document.currentScript:function(){for(var t=document.getElementsByTagName(&quot;script&quot;),e=t.length;e--;)if(t[e].getAttribute(&quot;data-cfhash&quot;))return t[e]}();if(t&amp;&amp;t.previousSibling){var e,r,n,i,c=t.previousSibling,a=c.getAttribute(&quot;data-cfemail&quot;);if(a){for(e=&quot;&quot;,r=parseInt(a.substr(0,2),16),n=2;a.length-n;n+=2)i=parseInt(a.substr(n,2),16)^r,e+=String.fromCharCode(i);e=document.createTextNode(e),c.parentNode.replaceChild(e,c)}t.parentNode.removeChild(t);}}catch(u){}}()/* ]]&gt; */&lt;/script&gt;\nFormat settings, CABAC                   : Yes\nFormat settings, ReFrames                : 2 frames\nCodec ID                                 : avc1\nCodec ID/Info                            : Advanced Video Coding\nDuration                                 : 3mn 57s\nBit rate                                 : 2 812 Kbps\nWidth                                    : 1 920 pixels\nHeight                                   : 1 080 pixels\nDisplay aspect ratio                     : 16:9\nFrame rate mode                          : Variable\nFrame rate                               : 23.976 fps\nMinimum frame rate                       : 23.974 fps\nMaximum frame rate                       : 23.981 fps\nColor space                              : YUV\nChroma subsampling                       : 4:2:0\nBit depth                                : 8 bits\nScan type                                : Progressive\nBits/(Pixel*Frame)                       : 0.057\nStream size                              : 79.6 MiB (91%)\n\nAudio\nID                                       : 2\nFormat                                   : AAC\nFormat/Info                              : Advanced Audio Codec\nFormat profile                           : LC\nCodec ID                                 : 40\nDuration                                 : 3mn 57s\nBit rate mode                            : Constant\nBit rate                                 : 256 Kbps\nChannel(s)                               : 2 channels\nChannel positions                        : Front: L R\nSampling rate                            : 44.1 KHz\nCompression mode                         : Lossy\nStream size                              : 7.25 MiB (8%)\n\nWiz Khalifa * Charlie Puth * Furious 7 * Soundtrack * HipHop * Promo\n &lt;a href=&quot;\nhttps://thepiratebay.se/user/MeRaDil&quot; rel=&quot;nofollow&quot; target=&quot;_NEW&quot;&gt;\nhttps://thepiratebay.se/user/MeRaDil&lt;/a&gt;","torrent":{"xt":"urn:btih:66770cb0969c7ffc3a3b1be4bb71bb71e044f221","amp;dn":"Wiz+Khalifa+ft.Charlie+Puth+-+See+You+Again+%28from+Furious+7%29","amp;tr":["udp%3A%2F%2Ftracker.openbittorrent.com%3A80","udp%3A%2F%2Fopen.demonii.com%3A1337","udp%3A%2F%2Ftracker.coppersurfer.tk%3A6969","udp%3A%2F%2Fexodus.desync.com%3A6969"],"infoHash":"66770cb0969c7ffc3a3b1be4bb71bb71e044f221","infoHashBuffer":{"type":"Buffer","data":[102,119,12,176,150,156,127,252,58,59,27,228,187,113,187,113,224,68,242,33]},"announce":[],"urlList":[]}}